<?xml version="1.0" encoding="utf-8"?>
<!-- Generator: Adobe Illustrator 16.0.0, SVG Export Plug-In . SVG Version: 6.00 Build 0)  -->
<!DOCTYPE svg PUBLIC "-//W3C//DTD SVG 1.1//EN" "http://www.w3.org/Graphics/SVG/1.1/DTD/svg11.dtd">
<svg version="1.1" id="Layer_1" xmlns="http://www.w3.org/2000/svg" xmlns:xlink="http://www.w3.org/1999/xlink" x="0px" y="0px"
	 width="100px" height="100px" viewBox="0 0 100 100" enable-background="new 0 0 100 100" xml:space="preserve">
<g>
	<path fill-rule="evenodd" clip-rule="evenodd" fill="none" stroke="#FFFFFF" stroke-miterlimit="10" d="M8,57.581
		c2.277-1.741,4.938-1.249,7.497-1.253c13.107-0.019,26.214-0.007,39.322-0.011c2.871-0.001,2.998-0.137,2.998-2.979
		c0-7.498-0.004-14.996,0.002-22.494c0.001-2.534,0.966-3.501,3.526-3.51c4.751-0.017,9.503,0.042,14.252-0.039
		c2.384-0.041,4.343,0.784,6.091,2.309c1.614,1.408,2.928,3.052,3.958,4.925c2.068,3.76,4.184,7.483,6.833,10.886
		c1.527,1.963,2.377,4.284,3.061,6.659c0.026,0.092,0.153,0.19,0.248,0.211c0.055,0.011,0.141-0.132,0.213-0.204
		c0,5.385,0,10.77,0,16.155c-0.059-0.126-0.022-0.36-0.287-0.249c-0.05,0.021-0.123,0.034-0.145,0.074
		c-1.6,2.875-4.27,3.12-7.138,2.951c-1.198-0.07-2.407,0.031-3.607-0.026c-0.968-0.046-1.449,0.126-1.712,1.274
		c-1.295,5.661-5.925,9.369-11.403,9.317c-5.431-0.05-9.879-3.727-11.192-9.356c-0.229-0.981-0.614-1.257-1.595-1.244
		c-4.354,0.054-8.71,0.104-13.061-0.021c-1.528-0.043-2.105,0.349-2.466,1.883c-1.379,5.866-7.091,9.525-13.032,8.532
		c-4.708-0.787-8.229-4.132-9.382-8.89c-0.174-0.72-0.111-1.461-1.347-1.529C15.749,70.74,11.734,71.886,8,69.955
		C8,65.83,8,61.706,8,57.581z M75.779,47.697c2.861,0,5.723,0.008,8.585-0.003c1.899-0.007,2.099-0.23,1.359-1.95
		c-1.789-4.167-4.147-8.019-6.789-11.693c-1.251-1.741-3.049-2.531-5.194-2.529c-2.289,0.003-4.58,0.053-6.868-0.025
		c-1.159-0.04-1.447,0.393-1.435,1.489c0.052,4.407,0.064,8.815-0.006,13.221c-0.02,1.252,0.445,1.537,1.59,1.512
		C69.94,47.654,72.859,47.697,75.779,47.697z M36.538,70.005c0.005-2.378-1.847-4.246-4.232-4.269
		c-2.373-0.023-4.301,1.822-4.352,4.167c-0.052,2.385,1.96,4.427,4.335,4.4C34.623,74.277,36.533,72.345,36.538,70.005z
		 M76.083,69.969c-0.011-2.382-1.868-4.229-4.258-4.234c-2.359-0.005-4.296,1.877-4.322,4.203c-0.027,2.383,2.004,4.407,4.378,4.36
		C74.23,74.252,76.094,72.332,76.083,69.969z"/>
	<path fill-rule="evenodd" clip-rule="evenodd" fill="none" stroke="#FFFFFF" stroke-miterlimit="10" d="M43.392,33.475
		c-2.058,0.001-4.115,0.02-6.172-0.005c-2.153-0.025-3.069-0.899-3.088-2.987c-0.027-3.028-0.029-6.058,0.001-9.086
		c0.019-1.991,0.937-2.928,2.966-2.946c4.228-0.039,8.457-0.042,12.686,0.002c2.011,0.021,2.893,0.968,2.908,2.993
		c0.024,3.028,0.027,6.058-0.002,9.086c-0.018,2.009-0.923,2.903-2.956,2.935C47.621,33.5,45.506,33.475,43.392,33.475z"/>
	<path fill-rule="evenodd" clip-rule="evenodd" fill="none" stroke="#FFFFFF" stroke-miterlimit="10" d="M20.756,33.475
		c-2.062,0-4.125,0.023-6.186-0.006c-2.053-0.029-3.005-0.901-3.038-2.896c-0.051-3.092-0.054-6.187,0.002-9.278
		c0.034-1.896,0.99-2.823,2.927-2.842c4.238-0.042,8.477-0.043,12.715-0.001c2.018,0.02,2.895,0.945,2.916,2.991
		c0.032,3.036,0.036,6.072-0.002,9.107c-0.025,2.027-0.923,2.889-2.976,2.918C24.995,33.498,22.875,33.474,20.756,33.475z"/>
	<path fill-rule="evenodd" clip-rule="evenodd" fill="none" stroke="#FFFFFF" stroke-miterlimit="10" d="M20.923,37.274
		c2.061,0,4.122-0.017,6.183,0.004c2.079,0.022,2.959,0.845,2.984,2.879c0.037,3.091,0.04,6.184-0.003,9.274
		c-0.026,1.885-0.86,2.756-2.734,2.777c-4.351,0.048-8.702,0.049-13.052,0c-1.828-0.02-2.735-0.948-2.767-2.788
		c-0.053-3.09-0.055-6.184-0.001-9.274c0.034-2.008,0.967-2.846,3.037-2.868C16.686,37.257,18.805,37.274,20.923,37.274z"/>
	<path fill-rule="evenodd" clip-rule="evenodd" fill="none" stroke="#FFFFFF" stroke-miterlimit="10" d="M43.279,52.229
		c-2.062,0-4.123,0.031-6.184-0.009c-2.066-0.041-2.943-0.91-2.962-2.93c-0.028-3.035-0.03-6.07,0.001-9.104
		c0.021-2.016,0.921-2.894,2.979-2.905c4.237-0.024,8.475-0.026,12.711,0.001c1.949,0.014,2.845,0.905,2.867,2.833
		c0.033,3.035,0.028,6.07,0.002,9.104c-0.017,2.129-0.87,2.967-3.058,3.002C47.517,52.257,45.397,52.23,43.279,52.229z"/>
</g>
</svg>
